<svg width="34" height="28" viewBox="0 0 34 28" fill="none" xmlns="http://www.w3.org/2000/svg">
<path d="M26.0495 5.675C24.377 4.8925 22.5888 4.32381 20.7192 4C20.4896 4.41512 20.2213 4.97346 20.0364 5.41762C18.049 5.11874 16.0798 5.11874 14.129 5.41762C13.9441 4.97346 13.6697 4.41512 13.4381 4C11.5665 4.32381 9.77618 4.89459 8.10373 5.67914C4.7304 10.7767 3.81594 15.7476 4.27317 20.648C6.51054 22.3188 8.67883 23.3338 10.8105 23.9979C11.3368 23.2736 11.8063 22.5035 12.2106 21.692C11.4405 21.3994 10.7028 21.0382 10.0058 20.6189C10.1907 20.482 10.3716 20.3387 10.5463 20.1914C14.7976 22.1798 19.4166 22.1798 23.617 20.1914C23.7938 20.3387 23.9746 20.482 24.1575 20.6189C23.4585 21.0403 22.7188 21.4014 21.9486 21.6941C22.353 22.5035 22.8204 23.2757 23.3488 24C25.4825 23.3358 27.6528 22.3209 29.8902 20.648C30.4267 14.9672 28.9737 10.0419 26.0495 5.675ZM12.7898 17.6343C11.5136 17.6343 10.4671 16.4429 10.4671 14.9921C10.4671 13.5413 11.4913 12.3479 12.7898 12.3479C14.0884 12.3479 15.1349 13.5392 15.1125 14.9921C15.1146 16.4429 14.0884 17.6343 12.7898 17.6343ZM21.3735 17.6343C20.0974 17.6343 19.0508 16.4429 19.0508 14.9921C19.0508 13.5413 20.075 12.3479 21.3735 12.3479C22.6721 12.3479 23.7186 13.5392 23.6963 14.9921C23.6963 16.4429 22.6721 17.6343 21.3735 17.6343Z" fill="#E6EFFF"/>
</svg>
