<svg width="24" height="24" viewBox="0 0 24 24" fill="none" xmlns="http://www.w3.org/2000/svg">
<path d="M10.4951 10.0864C10.495 10.0871 10.495 10.0867 10.4951 10.0864L10.496 10.0793C10.4973 10.0704 10.4997 10.0544 10.5035 10.0323C10.5113 9.98789 10.5248 9.91999 10.5464 9.83666C10.5904 9.66701 10.6639 9.44939 10.7807 9.23923C11.005 8.83547 11.3525 8.5 12.0001 8.5C12.8345 8.5 13.1324 8.75058 13.2648 8.93593C13.4345 9.1736 13.5001 9.5336 13.5001 10C13.5001 10.4665 13.2446 10.9236 12.7096 11.1303C12.075 11.3755 11.2501 11.989 11.2501 13V13.25C11.2501 13.6642 11.5859 14 12.0001 14C12.4143 14 12.7501 13.6642 12.7501 13.25V13C12.7501 12.9483 12.7686 12.8784 12.8517 12.787C12.9396 12.6903 13.0797 12.5953 13.2502 12.5295C14.4088 12.0818 15.0001 11.0362 15.0001 10C15.0001 9.4664 14.9406 8.7014 14.4854 8.06407C13.9928 7.37442 13.1656 7 12.0001 7C10.6476 7 9.87014 7.78953 9.46945 8.51077C9.27371 8.86311 9.15977 9.20799 9.09438 9.46022C9.0613 9.58782 9.03962 9.6957 9.02589 9.77432C9.01901 9.81373 9.01408 9.84608 9.01068 9.87021L9.00668 9.90019L9.00544 9.91036L9.00499 9.91419L9.00481 9.91579C9.00477 9.91613 9.00465 9.91718 9.75007 10L9.00465 9.91718C8.95891 10.3289 9.25556 10.6997 9.66724 10.7454C10.0776 10.791 10.4474 10.496 10.4951 10.0864Z" fill="#9493AC" fill-opacity="0.8"/>
<path d="M12 15C11.4477 15 11 15.4477 11 16C11 16.5523 11.4477 17 12 17C12.5523 17 13 16.5523 13 16C13 15.4477 12.5523 15 12 15Z" fill="#9493AC" fill-opacity="0.8"/>
<path fill-rule="evenodd" clip-rule="evenodd" d="M4 12C4 7.58172 7.58172 4 12 4C16.4183 4 20 7.58172 20 12C20 16.4183 16.4183 20 12 20C7.58172 20 4 16.4183 4 12ZM12 5.5C8.41015 5.5 5.5 8.41015 5.5 12C5.5 15.5899 8.41015 18.5 12 18.5C15.5899 18.5 18.5 15.5899 18.5 12C18.5 8.41015 15.5899 5.5 12 5.5Z" fill="#9493AC" fill-opacity="0.8"/>
</svg>
