<svg width="64" height="64" viewBox="0 0 64 64" fill="none" xmlns="http://www.w3.org/2000/svg">
<path d="M32 2L2.07717 15.4137C2.07717 15.4137 -1.01829 61.8457 32 61.8457C65.0183 61.8457 61.9228 15.4137 61.9228 15.4137L32 2Z" stroke="#7E7893" stroke-width="4" stroke-linecap="round" stroke-linejoin="round"/>
<path d="M31.7033 16C27.2932 16 23.6041 18.5332 22.1 22.0408C22.0306 22.2017 21.9967 22.3733 22.0003 22.5461C22.0038 22.7189 22.0448 22.8893 22.1208 23.0476C22.1968 23.206 22.3064 23.3492 22.4433 23.469C22.5802 23.5888 22.7417 23.6829 22.9186 23.7459C23.0954 23.8089 23.2842 23.8396 23.4742 23.8362C23.6641 23.8328 23.8514 23.7954 24.0255 23.7262C24.1995 23.6569 24.3568 23.5571 24.4884 23.4325C24.62 23.3079 24.7234 23.1609 24.7925 23C25.8977 20.4227 28.4998 18.6123 31.7033 18.6123C35.884 18.6123 39.2423 21.6668 39.2423 25.4694C39.2423 27.8936 37.7736 29.9725 35.6298 31.2041H35.6074V31.2243C33.0364 32.666 31.0022 34.9817 30.6263 38.0407C30.5954 38.2918 30.6058 38.447 30.6038 38.6938C30.6019 38.9405 30.6013 39.22 30.6038 39.51C30.6088 40.0901 30.6263 40.7059 30.6263 40.8162C30.6236 40.9893 30.6587 41.1611 30.7297 41.3217C30.8007 41.4823 30.906 41.6285 31.0396 41.7518C31.1732 41.875 31.3324 41.9729 31.508 42.0397C31.6836 42.1065 31.872 42.1409 32.0623 42.1409C32.2526 42.1409 32.441 42.1065 32.6165 42.0397C32.7921 41.9729 32.9513 41.875 33.0849 41.7518C33.2185 41.6285 33.3239 41.4823 33.3948 41.3217C33.4658 41.1611 33.501 40.9893 33.4983 40.8162C33.4983 40.608 33.4807 40.056 33.4758 39.4897C33.4734 39.2064 33.4741 38.917 33.4758 38.6938C33.4776 38.4704 33.5094 38.2559 33.4983 38.3468C33.7709 36.1281 35.1025 34.548 37.1107 33.4285C37.1182 33.4285 37.1257 33.4285 37.1331 33.4285C40.0333 31.7705 42.1143 28.8679 42.1143 25.4694C42.1143 20.2551 37.4361 16 31.7033 16ZM32.0623 44.0816C30.8726 44.0816 29.9083 44.9588 29.9083 46.0408C29.9083 47.1228 30.8726 48 32.0623 48C33.2519 48 34.2163 47.1228 34.2163 46.0408C34.2163 44.9588 33.2519 44.0816 32.0623 44.0816Z" fill="#7E7893" stroke="#7E7893"/>
</svg>
